<?xml version="1.0" encoding="iso-8859-1"?>
<!-- Generator: Adobe Illustrator 19.0.0, SVG Export Plug-In . SVG Version: 6.00 Build 0)  -->
<svg version="1.1" id="Layer_1" xmlns="http://www.w3.org/2000/svg" xmlns:xlink="http://www.w3.org/1999/xlink" x="0px" y="0px"
	 viewBox="0 0 512.006 512.006" style="enable-background:new 0 0 512.006 512.006;" xml:space="preserve">
<path style="fill:#FFFFFF;" d="M276.448,402.072H56.48c-12.384,0-22.52-10.136-22.52-22.52V26.528
	c0-12.384,10.136-22.52,22.52-22.52h255.408c12.392,0,22.52,10.136,22.52,22.52V344.28"/>
<path style="fill:#AAC1CE;" d="M276.448,406.08H56.48c-14.624,0-26.52-11.896-26.52-26.528V26.52C29.96,11.896,41.856,0,56.48,0
	h255.408c14.624,0,26.52,11.896,26.52,26.52v317.752h-8V26.52c0-10.208-8.312-18.52-18.52-18.52H56.48
	c-10.208,0-18.52,8.312-18.52,18.52v353.024c0,10.216,8.312,18.528,18.52,18.528h219.968V406.08z"/>
<path d="M276.448,356.456v48.736l60.92-60.92h-48.736C281.928,344.272,276.448,349.76,276.448,356.456z"/>
<g style="opacity:0.5;">
	<rect x="50.032" y="37.696" style="fill:#AAC1CE;" width="4" height="330.64"/>
</g>
<g style="opacity:0.5;">
	<polygon style="fill:#AAC1CE;" points="318.328,209.304 314.328,209.304 314.328,30.144 300.024,30.144 300.024,0.76 304.024,0.76 
		304.024,26.144 318.328,26.144 	"/>
</g>
<g>
	<rect x="95.408" y="68.96" style="fill:#AAC1CE;" width="180.504" height="8"/>
	<rect x="95.408" y="101.032" style="fill:#AAC1CE;" width="180.504" height="8"/>
	<rect x="95.408" y="133.104" style="fill:#AAC1CE;" width="73.128" height="8"/>
</g>
<rect x="394.875" y="370.413" transform="matrix(-0.7209 0.6931 -0.6931 -0.7209 1023.4224 476.3661)" style="fill:#FFD07D;" width="41.818" height="147.718"/>
<g style="opacity:0.15;">
	<polygon points="428.752,427.552 388.072,445.576 363.72,420.248 393.864,391.264 	"/>
</g>
<rect x="347.444" y="385.93" transform="matrix(-0.7209 0.6931 -0.6931 -0.7209 929.0385 433.8329)" style="fill:#E04F5F;" width="59.427" height="36.138"/>
<g transform="matrix(0.7209 -0.6931 0.6931 0.7209 -15.506 37.577)">
	
		<ellipse transform="matrix(-0.7209 -0.6931 0.6931 -0.7209 -225.7505 704.9273)" cx="29.077" cy="397.923" rx="124.272" ry="124.272"/>
	
		<ellipse transform="matrix(-0.7209 -0.6931 0.6931 -0.7209 -225.7505 704.9273)" style="fill:#FFFFFF;" cx="29.077" cy="397.923" rx="102.512" ry="102.512"/>
</g>
<path style="fill:#8BA0AE;" d="M281.248,394.12c-23.608,0-47.184-9.216-64.816-27.544c-16.632-17.304-25.536-40.056-25.064-64.056
	s10.264-46.384,27.568-63.024c16.864-16.216,38.904-25.088,62.24-25.088c0.6,0,1.2,0.008,1.816,0.016
	c24,0.48,46.384,10.264,63.024,27.576c16.64,17.304,25.536,40.048,25.072,64.056c-0.48,24-10.264,46.384-27.576,63.024
	C326.12,385.8,303.672,394.12,281.248,394.12z M281.192,218.408c-22.296,0-43.352,8.48-59.48,23.976
	c-16.528,15.888-25.88,37.28-26.336,60.208c-0.456,22.936,8.056,44.672,23.952,61.208c32.808,34.112,87.272,35.2,121.424,2.384
	c16.536-15.896,25.888-37.28,26.344-60.216c0.456-22.928-8.056-44.664-23.96-61.2l0,0c-15.888-16.536-37.28-25.888-60.208-26.344
	C282.344,218.416,281.768,218.408,281.192,218.408z"/>
<g>
</g>
<g>
</g>
<g>
</g>
<g>
</g>
<g>
</g>
<g>
</g>
<g>
</g>
<g>
</g>
<g>
</g>
<g>
</g>
<g>
</g>
<g>
</g>
<g>
</g>
<g>
</g>
<g>
</g>
</svg>
